# xmcd
#
# Track frame offsets: 
#        150
#        22437
#        46062
#        63525
#        98850
#        119450
#        144225
#        175300
#        199387
#        209737
#        224800
#        245475
#        263787
#        281037
#        302275
#
# Disc length: 4424 seconds
#
# Revision: 5
# Processed by: cddbd v1.5PL3 Copyright (c) Steve Scherf et al.
# Submitted via: ExactAudioCopy v0.95a4
#
DISCID=f311460f
DTITLE=Various Artist - The Best Of Healing Sound
DYEAR=1900
DGENRE=Pop
TTITLE0=DEEP FOREST - Deep Weather
TTITLE1=THE ZAWINUL SYNDICATE - They Had A Dream
TTITLE2=ZAP MAMA - Mupepe
TTITLE3=YEN - NAP&DOZE
TTITLE4=BOMB THE BASS - Winter In July (7"Mix)
TTITLE5=SWEETBACK - Gaze
TTITLE6=WEATHER REPORT - A Remark You Made
TTITLE7=JEVETTA STEELE - Calling You
TTITLE8=ERIC SERRA - Ballad For Mathilda
TTITLE9=PHILIP GRASS - A Gentleman's Honor
TTITLE10=RODORIGO LEAO and VOX ENSAMBLE - Solitarium
TTITLE11=STONE AGE - Zo Laret
TTITLE12=ANDREAS VOLLENWEIDER - The Secret,The Candle,And Love
TTITLE13=THE ZAWINUL SYSDICATE - From Venice To Vienna
TTITLE14=LOCUST - No-One In The World
EXTD=
EXTT0=
EXTT1=
EXTT2=
EXTT3=
EXTT4=
EXTT5=
EXTT6=
EXTT7=
EXTT8=
EXTT9=
EXTT10=
EXTT11=
EXTT12=
EXTT13=
EXTT14=
PLAYORDER=
